<?xml version="1.0" standalone="no"?>
<!DOCTYPE svg PUBLIC "-//W3C//DTD SVG 20010904//EN"
 "http://www.w3.org/TR/2001/REC-SVG-20010904/DTD/svg10.dtd">
<svg version="1.0" xmlns="http://www.w3.org/2000/svg"
 width="944.000000pt" height="944.000000pt" viewBox="0 0 944.000000 944.000000"
 preserveAspectRatio="xMidYMid meet">
<metadata>
Created by potrace 1.14, written by Peter Selinger 2001-2017
</metadata>
<g transform="translate(0.000000,944.000000) scale(0.100000,-0.100000)"
fill="#000000" stroke="none">
<path d="M4468 9435 c-2 -1 -48 -6 -103 -9 -55 -4 -116 -9 -135 -11 -19 -3
-56 -7 -83 -10 -44 -5 -64 -7 -149 -20 -18 -2 -69 -11 -113 -19 -44 -9 -91
-17 -105 -20 -67 -12 -258 -58 -337 -81 -48 -14 -95 -28 -103 -30 -8 -2 -69
-22 -135 -45 -66 -22 -124 -42 -130 -44 -18 -5 -49 -18 -195 -80 -302 -127
-634 -311 -879 -489 -33 -23 -69 -49 -81 -57 -30 -20 -183 -141 -245 -193
-146 -123 -396 -368 -510 -501 -489 -567 -827 -1206 -1013 -1917 -36 -137 -89
-391 -98 -474 -3 -33 -8 -62 -9 -65 -2 -3 -6 -37 -10 -75 -4 -39 -8 -81 -11
-95 -26 -158 -25 -844 1 -975 2 -11 7 -45 10 -75 3 -30 7 -66 10 -80 2 -14 9
-61 15 -105 7 -44 14 -89 16 -100 2 -11 6 -32 9 -47 3 -16 12 -58 21 -95 102
-446 214 -760 410 -1148 60 -119 227 -410 244 -425 3 -3 27 -39 55 -80 44 -68
221 -308 235 -320 3 -3 30 -34 59 -69 79 -96 122 -142 286 -306 547 -549 1201
-940 1961 -1174 55 -18 109 -33 120 -36 10 -2 64 -15 119 -29 190 -47 395 -84
560 -102 28 -3 64 -7 80 -9 196 -27 749 -27 965 0 19 2 62 7 95 10 50 5 131
17 270 40 11 2 31 6 45 9 14 3 36 8 50 10 49 8 216 47 248 57 18 6 39 12 45
13 63 13 359 108 452 145 318 130 531 234 760 374 211 129 406 269 610 439
106 88 419 395 497 488 25 30 54 65 65 77 98 115 313 405 313 422 0 5 4 11 8
13 11 4 173 274 241 401 221 415 411 979 476 1411 3 21 7 48 10 60 2 12 7 44
10 71 3 28 8 64 10 80 5 32 9 75 22 220 10 117 10 581 0 715 -7 88 -27 256
-53 435 -23 159 -150 658 -180 706 -3 5 -7 20 -10 32 -5 28 -115 309 -151 387
-228 489 -469 862 -793 1225 -70 79 -349 355 -414 410 -32 28 -65 55 -71 62
-22 21 -285 222 -342 260 -207 141 -433 273 -618 362 -71 34 -138 66 -148 72
-35 19 -314 127 -397 154 -47 15 -94 31 -105 36 -11 5 -29 11 -40 14 -11 2
-54 14 -95 26 -212 59 -458 111 -640 134 -30 4 -64 9 -75 11 -11 2 -51 6 -90
10 -38 3 -90 8 -115 10 -50 6 -616 14 -622 9z"/>
</g>
</svg>
